<svg xmlns="http://www.w3.org/2000/svg" id="Layer_1" viewBox="0 0 25 25">
  <path
    d="m11.87,20.11h-1.2c-4.4,0-6.72-2.74-6.72-7.93v-.8c0-.17.13-.3.3-.3h14.05c.17,0,.3.13.3.3v.8c0,5.19-2.32,7.93-6.72,7.93Zm-7.33-8.43v.5c0,4.86,2.06,7.33,6.12,7.33h1.2c4.06,0,6.12-2.46,6.12-7.33v-.5H4.54Z" />
  <path
    d="m16.65,18.2c-.09,0-.19-.04-.25-.13-.1-.14-.06-.32.07-.42.84-.59,1.58-.96,2.24-1.28,1.05-.52,1.75-.87,2-1.75.14-.47.12-.91-.06-1.23-.13-.23-.34-.4-.61-.48-.52-.15-.91,0-1.09.1-.21.12-.37.29-.42.46-.04.16-.21.25-.37.21-.16-.04-.25-.21-.21-.37.09-.32.35-.62.7-.82.46-.26,1.01-.31,1.55-.16.43.12.76.39.97.76.25.46.29,1.06.11,1.69-.33,1.13-1.2,1.57-2.31,2.12-.64.32-1.36.67-2.16,1.23-.05.04-.11.05-.17.05Z" />
  <path d="m18.69,21.31H3.84c-.17,0-.3-.13-.3-.3s.13-.3.3-.3h14.85c.17,0,.3.13.3.3s-.13.3-.3.3Z" />
  <path
    d="m8.51,10.07c-.07,0-.13-.02-.19-.07-.13-.1-.15-.29-.05-.42.79-.99.48-1.39.07-1.96-.47-.63-1.05-1.42.35-2.88.11-.12.3-.12.42,0,.12.11.12.3,0,.42-1.05,1.1-.74,1.52-.3,2.11.44.6,1,1.34-.08,2.69-.06.07-.15.11-.23.11Z" />
  <path
    d="m11.11,10.07c-.07,0-.13-.02-.19-.07-.13-.1-.15-.29-.05-.42.79-.99.48-1.39.07-1.96-.47-.63-1.05-1.42.35-2.88.11-.12.3-.12.42,0,.12.11.12.3,0,.42-1.05,1.1-.74,1.52-.3,2.11.44.6,1,1.34-.08,2.69-.06.07-.15.11-.23.11Z" />
  <path
    d="m13.72,10.07c-.07,0-.13-.02-.19-.07-.13-.1-.15-.29-.05-.42.79-.99.48-1.39.07-1.96-.47-.63-1.05-1.42.35-2.88.11-.12.3-.12.42,0,.12.11.12.3,0,.42-1.05,1.1-.74,1.52-.3,2.11.44.6,1,1.34-.08,2.69-.06.07-.15.11-.23.11Z" />
</svg>