<svg xmlns="http://www.w3.org/2000/svg" id="Layer_1" viewBox="0 0 25 25">
  <path
    d="m5.32,19.36c-.37,0-.74-.07-1.09-.2-.8-.3-1.44-.89-1.8-1.67-.36-.78-.39-1.65-.1-2.45.08-.22.18-.42.3-.61.58-.92,1.26-1.79,2.01-2.59.97-1.03,2.06-1.95,3.25-2.73,1.62-1.06,3.39-1.84,5.27-2.32,2.25-.58,4.57-.71,6.88-.38.23.03.46.09.67.16.8.3,1.44.89,1.8,1.67.36.78.39,1.65.1,2.45h0c-.25.67-.68,1.2-1.32,1.61-6.01,3.72-9.76,5.24-14.98,6.9-.33.1-.66.15-.99.15Zm12.23-12.63c-1.43,0-2.86.18-4.26.54-1.82.47-3.54,1.22-5.12,2.25-1.16.75-2.22,1.64-3.16,2.65-.73.78-1.39,1.63-1.95,2.52-.1.16-.19.34-.26.52-.25.68-.22,1.42.08,2.07s.84,1.16,1.52,1.41c.57.21,1.15.22,1.76.04,5.18-1.64,8.9-3.15,14.86-6.85.54-.35.91-.79,1.12-1.36h0c.52-1.4-.2-2.97-1.6-3.48-.18-.06-.36-.11-.56-.14-.81-.11-1.62-.17-2.43-.17Z" />
  <path d="m10.28,12.92c-1.76-.65-3.59-.87-5.43-.67l-.06-.49c1.92-.21,3.82.02,5.65.7l-.17.47Z" />
  <path
    d="m14.91,10.77c-.4-.2-.83-.39-1.26-.55-1.79-.66-3.72-.89-5.58-.66l-.06-.49c1.94-.24,3.95,0,5.82.68.45.17.89.36,1.31.57l-.22.44Z" />
  <path
    d="m18.41,9.13c-.73-.47-1.52-.87-2.35-1.17-.93-.34-1.89-.57-2.86-.67l.05-.49c1.01.11,2.01.34,2.98.7.87.32,1.69.73,2.45,1.22l-.27.42Z" />
</svg>