<svg xmlns="http://www.w3.org/2000/svg" id="Layer_1" viewBox="0 0 25 25">
  <defs>
    <style>.cls-1{fill:#1e1e1e;}</style>
  </defs>
  <path class="cls-1"
    d="m9.11,3.59h-1.6c-.12,0-.22-.1-.22-.22v-1.88c0-.12.1-.22.22-.22h1.6c.12,0,.22.1.22.22v1.88c0,.12-.1.22-.22.22Zm-1.38-.44h1.16v-1.45h-1.16v1.45Z" />
  <path class="cls-1"
    d="m14.85,7.08h-3.14c-.12,0-.22-.1-.22-.22v-1.61c0-.92-.74-1.66-1.66-1.66h-.72c-.12,0-.22-.1-.22-.22s.1-.22.22-.22h.72c1.16,0,2.1.94,2.1,2.1v1.39h2.71v-1.43c0-.44.36-.8.8-.8h1.61l-.28-.44c-.88-1.42-2.4-2.26-4.06-2.26h-3.6c-.12,0-.22-.1-.22-.22s.1-.22.22-.22h3.6c1.82,0,3.48.92,4.43,2.47l.48.78c.04.07.04.15,0,.22-.04.07-.11.11-.19.11h-2c-.2,0-.36.16-.36.36v1.64c0,.12-.1.22-.22.22Z" />
  <path class="cls-1"
    d="m14.85,5.43h-3.14c-.12,0-.22-.1-.22-.22s.1-.22.22-.22h3.14c.12,0,.22.1.22.22s-.1.22-.22.22Z" />
  <path class="cls-1"
    d="m15.79,24.05h-6.29c-.85,0-1.54-.69-1.54-1.54v-6.45c0-.81.33-1.59.91-2.16l1.72-1.67c.24-.23.38-.56.38-.89v-4.15c0-.31.25-.56.56-.56h3.51c.15,0,.29.06.39.16.1.11.16.25.16.39v4.07c0,.14.01.27.06.41,1.27,3.72,1.56,7.53,1.69,10.77.02.42-.14.82-.43,1.13-.29.31-.69.47-1.11.47ZM11.53,7.08c-.07,0-.12.05-.12.12v4.15c0,.45-.19.89-.51,1.2l-1.72,1.67c-.5.48-.78,1.15-.78,1.84v6.45c0,.61.5,1.11,1.11,1.11h6.29c.3,0,.59-.12.8-.34.21-.22.32-.51.31-.81-.12-3.21-.42-6.98-1.67-10.64-.06-.18-.09-.36-.09-.55v-4.07s0-.06-.03-.08c-.02-.02-.05-.03-.08-.03h-3.51Z" />
  <path class="cls-1"
    d="m7.88,8.03c-.07,0-.13-.03-.18-.09-.06-.08-.06-.2.02-.28,1.47-1.55,1.89-4.3,1.89-4.33.02-.12.13-.2.25-.18.12.02.2.13.18.25-.01.1-.31,2.04-1.31,3.64.67-.46,1.51-1.14,1.87-1.92.05-.11.18-.16.29-.11.11.05.16.18.11.29-.69,1.53-2.93,2.66-3.03,2.71-.03.02-.06.02-.1.02Z" />
</svg>