<svg xmlns="http://www.w3.org/2000/svg" id="Layer_1" viewBox="0 0 30 30">
  <path
    d="m15.08,25.27c-5.7,0-10.97-3.2-13.43-8.14-.06-.13-.06-.28.02-.4.08-.12.21-.2.35-.2h26.12c.13,0,.26.06.34.17.08.11.1.25.05.38-1.41,4.03-6.83,8.19-13.45,8.19Zm-12.37-7.91c2.43,4.32,7.22,7.08,12.37,7.08,5.86,0,10.86-3.58,12.45-7.08H2.7Z" />
  <path
    d="m15.08,29.58c-.23,0-.41-.19-.41-.41v-4.03c0-.23.19-.41.41-.41s.41.19.41.41v4.03c0,.23-.19.41-.41.41Z" />
  <path
    d="m21.63,29.5h-13.11c-.23,0-.41-.19-.41-.41s.19-.41.41-.41h13.11c.23,0,.41.19.41.41s-.19.41-.41.41Z" />
  <path
    d="m15.45,12.95c-.21,0-.39-.16-.41-.37-.02-.23.14-.43.37-.45.18-.02.35-.05.52-.08.33-.07.67-.17.99-.31.31-.13.61-.29.89-.49.28-.19.54-.4.78-.64.24-.24.46-.5.64-.78.19-.28.35-.58.48-.9.14-.32.24-.66.31-.99.07-.35.11-.71.11-1.06s-.04-.71-.11-1.06c-.07-.34-.17-.67-.31-.99-.27-.63-.64-1.19-1.13-1.67-1-.99-2.32-1.54-3.72-1.54-2.9,0-5.26,2.36-5.26,5.27,0,.18,0,.36.03.54.02.23-.14.43-.37.45-.26.02-.43-.14-.45-.37-.02-.2-.03-.41-.03-.62,0-3.36,2.73-6.09,6.09-6.09,1.63,0,3.16.63,4.31,1.79.56.56,1,1.21,1.31,1.94.16.37.27.76.35,1.15.08.4.12.82.12,1.23s-.04.83-.12,1.23c-.08.38-.2.77-.35,1.14-.15.36-.34.71-.56,1.04-.22.32-.47.62-.74.9-.27.27-.58.52-.9.74-.33.22-.67.41-1.03.56-.37.16-.76.28-1.14.36-.2.04-.4.07-.6.09-.01,0-.03,0-.04,0Z" />
  <path
    d="m5.16,17.16c-.13,0-.26-.06-.34-.18-.22-.33-.41-.67-.56-1.03-.32-.75-.48-1.55-.48-2.37s.16-1.62.48-2.37c.31-.72.74-1.37,1.31-1.94.56-.56,1.21-1,1.93-1.31,1.51-.64,3.24-.64,4.74,0,.73.31,1.38.75,1.94,1.31s1,1.21,1.31,1.94c.32.75.48,1.55.48,2.37,0,.42-.04.83-.12,1.23-.08.39-.2.78-.36,1.14-.16.37-.34.71-.56,1.04-.13.19-.39.24-.58.11-.19-.13-.24-.39-.11-.58.19-.28.35-.58.48-.89.13-.32.24-.65.31-.99.07-.34.11-.7.11-1.06,0-.71-.14-1.4-.41-2.05-.27-.63-.64-1.19-1.13-1.67-.48-.48-1.04-.86-1.67-1.13-1.3-.55-2.8-.55-4.1,0-.63.27-1.19.64-1.67,1.13-.49.49-.86,1.05-1.13,1.67-.27.65-.41,1.34-.41,2.05s.14,1.4.41,2.05c.13.31.29.61.48.9.13.19.08.45-.11.57-.07.05-.15.07-.23.07Z" />
  <path
    d="m24.59,17.16c-.08,0-.16-.02-.23-.07-.19-.13-.24-.39-.11-.57.19-.28.35-.58.48-.9.13-.32.24-.65.31-.99.07-.34.11-.7.11-1.06s-.04-.71-.11-1.06c-.07-.34-.17-.67-.31-.99-.13-.31-.29-.61-.48-.89-.19-.28-.41-.54-.64-.78-.24-.24-.5-.45-.78-.64-.28-.19-.59-.35-.89-.48-.32-.14-.65-.24-.99-.31-.22-.05-.37-.26-.32-.49s.27-.37.49-.32c.39.08.77.2,1.14.35.36.15.71.34,1.04.56.32.22.63.47.9.74.27.28.53.58.74.9.22.33.41.68.56,1.04.16.37.27.75.36,1.14.08.41.12.82.12,1.23s-.04.83-.12,1.23c-.08.39-.2.78-.36,1.14-.15.36-.34.71-.56,1.03-.08.12-.21.18-.34.18Z" />
</svg>