<svg xmlns="http://www.w3.org/2000/svg" id="Layer_1" viewBox="0 0 25 25">
  <g>
    <path d="m19.25,21.59H5.69V4.1h13.55v17.5Zm-13.05-.5h12.55V4.6H6.19v16.5Z" />
    <rect x="9.12" y="4.24" width=".5" height="17.05" />
    <rect x="9.37" y="8.31" width="9.58" height=".5" />
    <rect x="9.37" y="12.46" width="9.58" height=".5" />
    <rect x="9.37" y="16.57" width="9.58" height=".5" />
    <rect x="6.48" y="21.29" width=".5" height="1.68" />
    <rect x="18.01" y="21.29" width=".5" height="1.68" />
  </g>
  <g>
    <g>
      <circle cx="7.75" cy="6.77" r=".43" />
      <path
        d="m7.75,7.45c-.38,0-.68-.31-.68-.68s.31-.68.68-.68.68.31.68.68-.31.68-.68.68Zm0-.86c-.1,0-.18.08-.18.18s.08.18.18.18.18-.08.18-.18-.08-.18-.18-.18Z" />
    </g>
    <g>
      <circle cx="7.75" cy="9.53" r=".43" />
      <path
        d="m7.75,10.21c-.38,0-.68-.31-.68-.68s.31-.68.68-.68.68.31.68.68-.31.68-.68.68Zm0-.86c-.1,0-.18.08-.18.18s.08.18.18.18.18-.08.18-.18-.08-.18-.18-.18Z" />
    </g>
    <g>
      <circle cx="7.75" cy="12.3" r=".43" />
      <path
        d="m7.75,12.98c-.38,0-.68-.31-.68-.68s.31-.68.68-.68.68.31.68.68-.31.68-.68.68Zm0-.86c-.1,0-.18.08-.18.18s.08.18.18.18.18-.08.18-.18-.08-.18-.18-.18Z" />
    </g>
  </g>
</svg>