<svg xmlns="http://www.w3.org/2000/svg" viewBox="0 0 28 28" width="28" height="28">
  <path
    d="M4.18 9.343a.905.905 0 01-.656.273c-.219.055-.492-.054-.656-.218L.246 6.775c-.328-.327-.328-.928 0-1.256.328-.328.929-.328 1.256 0l1.913 1.967 3.77-4.535c.327-.382.874-.382 1.256-.11.382.329.382.875.11 1.257zm0 8.742a.905.905 0 01-.656.273c-.219.055-.492-.055-.656-.219L.246 15.517c-.328-.328-.328-.929 0-1.257.328-.327.929-.327 1.256 0l1.913 1.967 3.77-4.534c.327-.383.874-.383 1.256-.11.382.328.382.874.11 1.257zM10.462 6.12c0-.437.438-.874.875-.874h15.789c.437 0 .874.437.874.874 0 .492-.437.874-.874.874h-15.79c-.437 0-.874-.382-.874-.874zm0 8.741c0-.437.438-.874.875-.874h15.789c.437 0 .874.437.874.874 0 .492-.437.874-.874.874h-15.79c-.437 0-.874-.382-.874-.874zm-1.748 8.742c0-.437.437-.874.874-.874h17.538c.437 0 .874.437.874.874 0 .492-.437.874-.874.874H9.588c-.437 0-.874-.382-.874-.874zM3.47 25.35a1.76 1.76 0 01-1.748-1.748c0-.929.82-1.748 1.748-1.748.984 0 1.749.819 1.749 1.748 0 .983-.765 1.748-1.749 1.748z"
    fill="#231f20" />
</svg>