<svg xmlns="http://www.w3.org/2000/svg" viewBox="0 0 32 32" width="32" height="32">
  <path d="M16.006 0l-.204.002h-.061l.015.842h.056l.197-.002h.003c.546 0 1.093.029 1.634.087l.09-.837A16.179 16.179 0 0016.008 0v.421zm-1.99.122c-.572.07-1.14.172-1.703.304l.195.82c.531-.126 1.07-.222 1.612-.289zm5.427.245l-.18.822c.535.116 1.063.261 1.58.434l.268-.799a15.832 15.832 0 00-1.668-.457zm-8.79.544c-.544.192-1.078.413-1.597.663l.365.76c.492-.237.999-.447 1.514-.628zm12.066.55l-.352.764c.496.228.981.484 1.45.765l.432-.722a15.696 15.696 0 00-1.53-.807zM7.54 2.406c-.49.305-.963.636-1.417.992l.52.663c.43-.337.877-.65 1.341-.94zm18.142.83l-.508.67c.436.33.853.683 1.25 1.058l.58-.612c-.42-.396-.861-.769-1.322-1.117zM4.822 4.537c-.413.403-.805.827-1.172 1.272l.65.536c.348-.422.718-.825 1.11-1.206zm23.373 1.066l-.64.548c.355.415.686.85.994 1.3l.696-.473a15.762 15.762 0 00-1.05-1.375zM2.624 7.2c-.317.482-.608.982-.87 1.495l.75.383c.248-.486.524-.96.824-1.416zM30.14 8.458l-.742.396c.257.482.487.978.69 1.485l.782-.312a15.676 15.676 0 00-.73-1.57zM1.05 10.275a15.72 15.72 0 00-.526 1.648l.815.212c.137-.528.303-1.049.498-1.559zm30.375 1.388l-.811.227a15 15 0 01.353 1.6l.831-.137a15.853 15.853 0 00-.373-1.69zM.179 13.616c-.086.57-.14 1.146-.163 1.722l.842.033c.022-.546.073-1.09.153-1.63zm31.81 1.454l-.84.048c.031.545.033 1.093.006 1.64l.84.04c.029-.575.028-1.152-.006-1.728zM.878 17.01l-.841.055c.037.575.105 1.149.204 1.717l.831-.145a15.112 15.112 0 01-.194-1.626zm30.11 1.377c-.085.54-.199 1.075-.341 1.603l.814.218c.15-.556.27-1.12.359-1.69zm-29.55 1.848l-.809.232c.16.554.35 1.1.57 1.633l.778-.32a14.82 14.82 0 01-.538-1.545zm28.697 1.31a14.902 14.902 0 01-.678 1.49l.745.39c.268-.51.508-1.036.718-1.574zM2.68 23.26l-.74.402c.275.507.579.998.908 1.472l.691-.48a14.99 14.99 0 01-.859-1.394zm25.938 1.185c-.303.454-.63.89-.982 1.309l.645.543c.371-.442.718-.904 1.038-1.384zM4.547 25.947l-.637.551c.378.436.78.851 1.203 1.244l.573-.619c-.4-.371-.78-.763-1.139-1.176zm21.97 1.003c-.394.379-.81.735-1.243 1.068l.515.668c.458-.352.896-.73 1.312-1.129zm-19.57 1.22l-.504.677c.462.344.943.663 1.441.956l.426-.726c-.47-.276-.926-.58-1.364-.906zm16.978.776a14.91 14.91 0 01-1.443.776l.359.763c.522-.245 1.031-.52 1.523-.82zm-14.159.883l-.345.768a15.83 15.83 0 001.614.622l.26-.801c-.52-.169-1.03-.365-1.529-.59zm11.197.51a14.84 14.84 0 01-1.574.445l.184.823c.563-.127 1.12-.284 1.665-.472zm-8.085.5l-.171.824c.565.118 1.135.205 1.71.261l.082-.839a15.044 15.044 0 01-1.621-.246zm4.895.22c-.543.063-1.091.097-1.637.1l.006.841a16.12 16.12 0 001.726-.104z" color="#000" fill="#231f20"/>
  <path d="M8.5 11h5v10h-5z" fill="#0052b4"/>
  <path d="M13.5 11h5v10h-5z" fill="#ffda44"/>
  <path d="M18.5 11h5v10h-5z" fill="#d10127"/>
</svg>