<svg xmlns="http://www.w3.org/2000/svg" id="Layer_1" viewBox="0 0 30 18.62">
  <path
    d="m29.16,16.02h-4.16v-2.47c0-1.25-.32-2.48-.93-3.57-1.78-3.17-5.51-4.53-8.87-3.3l-1.36-1.36c-.97-.97-2.42-1.17-3.6-.62l-1.73-1.73c.32-.56.24-1.29-.24-1.76-.57-.57-1.51-.57-2.08,0-.19.19-.32.42-.38.67,0,0,0,0,0,0-.12.03-.24.08-.35.14,0,0-.01,0-.02.01-.05.03-.09.06-.13.09-.01,0-.02.02-.03.02-.05.04-.09.08-.14.12,0,0,0,0,0,0-.28.28-.43.65-.43,1.04s.15.76.43,1.04c.47.47,1.2.56,1.76.24l1.35,1.35c-.73-.21-1.52-.14-2.22.19l-1.73-1.73c.32-.56.24-1.29-.24-1.76-.57-.57-1.51-.57-2.08,0-.19.19-.32.42-.38.67,0,0-.01,0-.02,0-.11.03-.22.07-.33.13-.01,0-.03.01-.04.02-.04.02-.08.05-.11.08-.01,0-.03.02-.04.03-.05.04-.09.08-.13.12-.28.28-.43.65-.43,1.04s.15.76.43,1.04c.47.47,1.2.56,1.76.24l1.77,1.77c-.47,1.15-.25,2.52.69,3.45l1.06,1.06c.32.32.5.75.5,1.21v.83c0,.68.29,1.28.74,1.71H1.96c-.18,0-.32.14-.32.32s.14.32.32.32h27.2c.18,0,.32-.14.32-.32s-.14-.32-.32-.32m-21.81-1.71v-.83c0-.63-.25-1.22-.69-1.67l-1.06-1.06c-.48-.48-.74-1.11-.74-1.78,0-.24.04-.48.1-.71.06-.22.16-.43.28-.63.1-.16.22-.31.35-.45.1-.1.21-.19.32-.27.18-.13.38-.24.59-.31.27-.1.57-.16.87-.16.41,0,.81.1,1.16.28.1.05.19.11.29.18.1.07.19.15.28.23.02.02.04.03.05.05l2.04,2.04c.57.57.65,1.46.24,2.12-.07.11-.15.21-.24.3,0,0,0,0,0,.01-.11.13-.11.32,0,.44.01.01.02.01.03.02.09.07.22.09.32.04.04-.02.07-.04.1-.07.67-.67.85-1.64.54-2.48-.11-.31-.29-.61-.54-.86l-1.8-1.8-.24-.24c-.09-.09-.19-.18-.3-.26.04-.08.08-.16.13-.24.1-.16.22-.31.35-.45.1-.1.21-.19.32-.27.18-.13.38-.24.59-.31.27-.1.57-.16.87-.16.67,0,1.31.26,1.78.74l1.17,1.17-1.97.89c-.16.07-.23.26-.16.43.04.08.11.14.19.17.07.03.16.02.24-.01l2.1-.95s.06-.03.1-.04c.11-.05.22-.09.32-.13.11-.04.22-.08.34-.12,2.99-.94,6.24.31,7.81,3.11.56.99.85,2.12.85,3.26v2.47h-15.3c-.95,0-1.71-.77-1.71-1.71m-.19-10.38c-.12-.12-.31-.13-.44-.01-.33.29-.82.27-1.13-.03-.16-.16-.24-.36-.24-.58s.09-.43.24-.58c0,0,0,0,0,0,.04-.04.08-.07.12-.1,0,0,0,0,0,0,.32-.2.77-.17,1.04.11.06.06.15.09.23.09s.16-.03.23-.09c.13-.13.13-.33,0-.45-.2-.2-.45-.33-.72-.39.04-.07.09-.14.15-.2.32-.32.85-.32,1.17,0,.31.31.32.81.03,1.13-.11.13-.11.32.01.44l1.81,1.81c-.11.08-.22.17-.32.27-.14.14-.26.29-.36.44l-1.83-1.83Zm-4.21,1.41c-.12-.12-.31-.13-.44-.01-.33.29-.82.27-1.13-.03-.16-.16-.24-.36-.24-.58s.09-.43.24-.58c0,0,0,0,0,0,.04-.04.08-.07.12-.1.02-.01.03-.02.05-.03.03-.02.05-.03.08-.04.02,0,.04-.02.06-.02.03,0,.05-.02.08-.02.02,0,.05,0,.07-.01.25-.03.51.04.7.23.06.06.15.09.23.09s.16-.03.23-.09c.13-.13.13-.33,0-.45-.2-.2-.46-.33-.72-.39.04-.07.09-.14.15-.2.32-.32.85-.32,1.17,0,.31.31.32.81.03,1.13-.11.13-.11.32.01.44l1.81,1.81c-.11.08-.22.17-.32.27-.14.14-.26.29-.36.44l-1.83-1.83Z" />
  <path
    d="m24.43,17.24H7.33c-.18,0-.32.14-.32.32s.14.32.32.32h17.1c.18,0,.32-.14.32-.32s-.14-.32-.32-.32" />
  <path
    d="m16.67,2.2l-.22-.74-.62.18.22.74c.07.24.01.51-.05.59-.22.26-.3.77-.18,1.18l.21.7.62-.18-.21-.7c-.07-.24-.01-.51.05-.59.22-.26.3-.77.18-1.18" />
  <path
    d="m18.02,2.2l-.22-.74-.62.18.22.74c.07.24.01.51-.05.59-.22.26-.3.77-.18,1.18l.21.7.62-.18-.21-.7c-.07-.24-.01-.51.05-.59.22-.26.3-.77.18-1.18" />
  <path
    d="m19.37,2.2l-.22-.74-.62.18.22.74c.07.24.01.51-.05.59-.22.26-.3.77-.18,1.18l.21.7.62-.18-.21-.7c-.07-.24-.01-.51.05-.59.22-.26.3-.77.18-1.18" />
</svg>