<svg xmlns="http://www.w3.org/2000/svg" id="Layer_1" viewBox="0 0 25 25">
  <g>
    <path
      d="m11.14,20.58c-4.43,0-8.03-3.6-8.03-8.03S6.71,4.52,11.14,4.52c1.31,0,2.61.32,3.75.93.15.08.2.26.12.41-.08.15-.26.2-.41.12-1.06-.56-2.26-.86-3.47-.86-4.1,0-7.43,3.33-7.43,7.43s3.33,7.43,7.43,7.43c2.27,0,4.39-1.02,5.81-2.8.1-.13.29-.15.42-.05.13.1.15.29.05.42-1.53,1.92-3.82,3.02-6.28,3.02Z" />
    <path
      d="m11.14,18.59c-3.33,0-6.04-2.71-6.04-6.04s2.71-6.04,6.04-6.04c1.14,0,2.24.32,3.2.92.14.09.18.27.1.41s-.27.18-.41.09c-.86-.54-1.86-.83-2.88-.83-3,0-5.44,2.44-5.44,5.44s2.44,5.44,5.44,5.44c2.25,0,4.29-1.41,5.09-3.51.06-.16.23-.23.39-.17.15.06.23.23.17.39-.88,2.33-3.15,3.89-5.65,3.89Z" />
  </g>
  <path
    d="m18.36,20.28h1.75c.13,0,.24-.11.24-.24s-.11-.24-.24-.24h-1.51v-4.49c0-.34.12-.68.33-.95.09-.11.19-.21.3-.29l.89-.66s.02-.02.03-.03c1-.65,1.68-1.89,1.68-3.32,0-.41-.06-.81-.16-1.19l-.86-3.35h-4.9l-.86,3.35c-.11.39-.17.79-.17,1.2h0c0,1.43.68,2.67,1.68,3.32.01.01.02.02.03.03l.89.66c.11.08.21.18.3.29.21.27.33.61.33.95v4.49h-1.51c-.13,0-.24.11-.24.24s.11.24.24.24h1.75Zm2.99-10.12c0,1.29-1.27,3.22-2.78,3.22h-.43c-1.51,0-2.78-1.87-2.78-3.23s.9-4.01.9-4.01h4.14s.95,2.73.95,4.01Zm-3.4,3.69c.06,0,.12,0,.19,0h.43c.06,0,.13,0,.19,0-.07.07-.14.14-.2.22-.08.1-.14.2-.2.31-.06-.11-.12-.21-.2-.31-.06-.08-.13-.15-.2-.22" />
</svg>