<svg width="12" height="12" viewBox="0 0 12 12" fill="none" xmlns="http://www.w3.org/2000/svg">
  <path fill-rule="evenodd" clip-rule="evenodd"
    d="M11.599 4.47333L7.9943 3.956L6.42697 0.282664C6.2663 -0.094669 5.7323 -0.094669 5.57163 0.282664L4.00497 3.956L0.4023 4.47333C-0.000367085 4.53133 -0.143034 5.04 0.170966 5.298L3.00763 7.63L2.00363 11.4113C1.8923 11.8313 2.36497 12.1627 2.72163 11.9147L5.99963 9.63466L9.27763 11.9147C9.6343 12.1627 10.1063 11.8313 9.99497 11.4113L8.99097 7.63L11.829 5.29733C12.1423 5.03933 12.001 4.53133 11.599 4.47333Z"
    fill="#134CD8"></path>
  <mask id="mask0" mask-type="alpha" maskUnits="userSpaceOnUse" x="0" y="-1" width="12" height="13">
    <path fill-rule="evenodd" clip-rule="evenodd"
      d="M11.599 4.47333L7.9943 3.956L6.42697 0.282664C6.2663 -0.094669 5.7323 -0.094669 5.57163 0.282664L4.00497 3.956L0.4023 4.47333C-0.000367085 4.53133 -0.143034 5.04 0.170966 5.298L3.00763 7.63L2.00363 11.4113C1.8923 11.8313 2.36497 12.1627 2.72163 11.9147L5.99963 9.63466L9.27763 11.9147C9.6343 12.1627 10.1063 11.8313 9.99497 11.4113L8.99097 7.63L11.829 5.29733C12.1423 5.03933 12.001 4.53133 11.599 4.47333Z"
      fill="white"></path>
  </mask>
  <g mask="url(#mask0)">
    <rect x="-10" y="-10" width="32" height="32" fill="#134CD8"></rect>
  </g>
</svg>