<svg xmlns="http://www.w3.org/2000/svg" viewBox="0 0 66 24" width="66" height="24">
  <path
    d="M5.05 0C3.425 0 2.385 1.728 3.145 3.164l2.094 3.97H1.444a1.396 1.398 0 00-1.235 2.05l6.736 12.764a1.396 1.398 0 002.467 0l1.83-3.447 2.295 4.35c.808 1.53 2.996 1.533 3.806.004l10.494-19.77c.742-1.4-.27-3.085-1.852-3.085zm1.702 7.117h9.03a.904.905 0 01.799 1.33l-4.525 8.527a.93.93 0 01-1.642 0l-4.48-8.49a.93.93 0 01.818-1.367zm46.145.028c-1.739 0-3.29.432-3.29 2.888v4.484c0 2.457 1.537 2.902 3.276 2.902 1.456 0 2.25-.108 2.722-.175.189-.027.27-.108.27-.283v-1.255a.27.27 0 00-.27-.27h-2.843c-.633 0-.862-.216-.862-.918v-1.431h3.598a.27.27 0 00.27-.27v-1.283a.27.27 0 00-.27-.27H51.9v-1.228c0-.703.229-.918.862-.918h2.843a.27.27 0 00.27-.27V7.59c0-.175-.081-.243-.27-.27-.472-.067-1.253-.175-2.708-.175zm4.482.123a.194.194 0 00-.202.175.191.192 0 00.027.081l2.95 4.63-2.92 4.876a.25.25 0 00-.026.095c0 .094.067.176.202.176h1.995c.147 0 .241-.109.336-.27l1.683-2.89 1.859 2.954c.094.147.175.203.35.203h2.144c.108 0 .176-.054.175-.133a.301.302 0 00-.04-.135l-3.062-4.847 2.936-4.659a.191.192 0 00.027-.081.194.194 0 00-.202-.175h-1.996c-.147 0-.268.135-.335.256l-1.67 2.727-1.724-2.727c-.08-.121-.188-.256-.336-.256zm-16.025 0a.26.26 0 00-.27.257v1.39a.26.26 0 00.27.257h2.303v7.858a.27.27 0 00.27.27h1.766a.27.27 0 00.27-.27V9.172h2.29a.27.271 0 00.283-.256v-1.39a.27.271 0 00-.283-.257zm-10.128.026a.208.208 0 00-.203.255s2.39 8.317 2.417 8.4c.319.99 1.093 1.464 2.078 1.464.938 0 1.757-.496 2.078-1.462.038-.112 2.375-8.402 2.375-8.402a.208.208 0 00-.203-.255l-1.915.002a.208.208 0 00-.204.168l-1.957 7.252c-.027.148-.067.202-.188.202-.122 0-.162-.056-.189-.202l-1.96-7.254a.208.208 0 00-.203-.168z"
    fill="#231f20" />
</svg>