<svg xmlns="http://www.w3.org/2000/svg" viewBox="0 0 162 30" width="162" height="30">
  <path
    d="M12 6a11.926 11.926 0 00-6 1.62V12a6 6 0 01-6 6A12 12 0 1012 6zm30 0a12 12 0 1012 12A12 12 0 0042 6zm30 0a12 12 0 00-12 12 12 12 0 0012 12v-5.998a6 6 0 010-12zm18 0a12 12 0 106 22.38v-4.378a6 6 0 016-6A12 12 0 0090 6zm60 0a12 12 0 1012 12 12 12 0 00-12-12zm-32.666.314A11.993 11.993 0 10132 18a6 6 0 01-6-6V7.62a11.993 11.993 0 00-8.666-1.306zM10.83 12.115A6 6 0 0118 18a6 6 0 01-6 6.002V24a6 6 0 01-1.17-11.885zm30 0A6 6 0 0148 18a6 6 0 01-6 6.002V24a6 6 0 01-1.17-11.885zm47.998 0A6 6 0 0196 18a6 6 0 01-6 6.002V24a6 6 0 01-1.172-11.885zm60 0A6 6 0 01156 18a6 6 0 01-6 6.002V24a6 6 0 01-1.172-11.885zm-30 .002A6 6 0 01126 18.002a6 6 0 01-6 6 6 6 0 01-1.172-11.885z"
    fill="#3a2f2e" />
  <path d="M126 7.619V12a6 6 0 006 6.002V0h-6z" fill="#8db740" />
  <path d="M96 24v6h6V18a6 6 0 00-6 6z" fill="#fcb116" />
  <path d="M6 12V0H0v18.002A6 6 0 006 12z" fill="#e85e4a" />
</svg>